<svg xmlns="http://www.w3.org/2000/svg" version="1.1" xmlns:xlink="http://www.w3.org/1999/xlink" width="512" height="512" x="0" y="0" viewBox="0 0 512 512" style="enable-background:new 0 0 512 512" xml:space="preserve" class=""><g><path d="M221 216.002c-5.522 0-10-4.478-10-10 0-11.028-8.972-20-20-20s-20 8.972-20 20c0 5.522-4.478 10-10 10s-10-4.478-10-10c0-22.056 17.944-40 40-40s40 17.944 40 40c0 5.522-4.478 10-10 10zM351 216.002c-5.522 0-10-4.478-10-10 0-11.028-8.972-20-20-20s-20 8.972-20 20c0 5.522-4.478 10-10 10s-10-4.478-10-10c0-22.056 17.944-40 40-40s40 17.944 40 40c0 5.522-4.478 10-10 10zM206 316.002c-5.522 0-10-4.478-10-10s4.478-10 10-10c22.056 0 40-17.944 40-40 0-5.522 4.478-10 10-10s10 4.478 10 10c0 33.084-26.916 60-60 60z" fill="#000000" opacity="1" data-original="#000000" class=""></path><path d="M306 316.002c-33.084 0-60-26.916-60-60 0-5.522 4.478-10 10-10s10 4.478 10 10c0 22.056 17.944 40 40 40 5.522 0 10 4.478 10 10s-4.478 10-10 10z" fill="#000000" opacity="1" data-original="#000000" class=""></path><path d="M256 396.002c-98.928 0-179.412-74.019-179.412-165s80.484-165 179.412-165 179.412 74.019 179.412 165-80.484 165-179.412 165zm0-310c-87.9 0-159.412 65.047-159.412 145s71.512 145 159.412 145 159.412-65.047 159.412-145-71.512-145-159.412-145z" fill="#000000" opacity="1" data-original="#000000" class=""></path><path d="M403.882 165.304c-.576 0-1.16-.05-1.747-.153-5.439-.959-9.071-6.146-8.113-11.584 8.486-48.154-.453-95.592-5.122-115.218-15.52 5.086-48.033 18.944-72.954 51.216-3.377 4.371-9.656 5.177-14.027 1.803-4.371-3.376-5.178-9.656-1.803-14.027 38.553-49.923 91.736-60.72 93.981-61.155a9.998 9.998 0 0 1 11.466 6.893c.823 2.69 20.017 66.659 8.156 133.96-.856 4.85-5.075 8.264-9.837 8.265zM98.281 157.037c-11.86-67.301 7.333-131.27 8.156-133.96a10.001 10.001 0 0 1 11.466-6.893c2.245.436 55.429 11.232 93.981 61.155 3.375 4.371 2.568 10.651-1.803 14.027-4.371 3.375-10.65 2.567-14.027-1.803-25.057-32.446-57.45-46.212-72.938-51.243-4.657 19.636-13.607 67.188-5.138 115.245.958 5.438-2.674 10.625-8.113 11.584-5.427.958-10.623-2.662-11.584-8.112zM486 266.002h-90c-5.522 0-10-4.478-10-10s4.478-10 10-10h90c5.522 0 10 4.478 10 10s-4.478 10-10 10zM481.862 355.105l-110-50c-5.028-2.285-7.251-8.214-4.966-13.241 2.286-5.028 8.218-7.25 13.241-4.966l110 50c5.028 2.285 7.251 8.214 4.966 13.241-2.287 5.035-8.219 7.25-13.241 4.966zM116 266.002H26c-5.522 0-10-4.478-10-10s4.478-10 10-10h90c5.522 0 10 4.478 10 10s-4.478 10-10 10zM16.896 350.139c-2.285-5.027-.063-10.956 4.966-13.241l110-50c5.026-2.288 10.956-.063 13.241 4.966 2.285 5.027.063 10.956-4.966 13.241l-110 50c-5.005 2.277-10.946.085-13.241-4.966z" fill="#000000" opacity="1" data-original="#000000" class=""></path><path d="M354.188 116.581c-5.014-2.314-7.202-8.256-4.888-13.271l37.62-81.5c2.314-5.014 8.257-7.203 13.271-4.888 5.014 2.314 7.202 8.256 4.888 13.271l-37.62 81.5c-2.315 5.016-8.26 7.202-13.271 4.888zM144.541 111.693l-37.62-81.5c-2.314-5.015-.126-10.956 4.888-13.271 5.013-2.317 10.956-.128 13.271 4.888l37.62 81.5c2.314 5.015.126 10.956-4.888 13.271s-10.958.125-13.271-4.888zM410.96 496.002H101.04a10 10 0 0 1-9.685-7.507C87.802 474.69 86 460.393 86 446.002c0-41.388 15.049-81.272 42.374-112.309 3.649-4.146 9.969-4.546 14.114-.897 4.145 3.65 4.547 9.969.897 14.114C119.277 374.292 106 409.483 106 446.002c0 10.117 1.007 20.176 2.999 30h294.002c9.191-45.326-2.841-93.262-34.387-129.092-3.649-4.146-3.247-10.464.897-14.114 4.146-3.649 10.464-3.247 14.114.897 37.341 42.412 51.004 100.473 37.019 154.802a10 10 0 0 1-9.684 7.507z" fill="#000000" opacity="1" data-original="#000000" class=""></path><path d="M286 456.002c-5.522 0-10-4.478-10-10 0-11.028-8.972-20-20-20s-20 8.972-20 20c0 5.522-4.478 10-10 10s-10-4.478-10-10c0-22.056 17.944-40 40-40s40 17.944 40 40c0 5.522-4.478 10-10 10z" fill="#000000" opacity="1" data-original="#000000" class=""></path><path d="M256 426.002c-5.522 0-10-4.478-10-10v-30c0-5.522 4.478-10 10-10s10 4.478 10 10v30c0 5.522-4.478 10-10 10zM256 166.002c-22.398 0-45-20.099-45-65 0-8.219.759-16.286 2.254-23.979 1.054-5.42 6.302-8.956 11.725-7.907 5.422 1.055 8.962 6.304 7.908 11.726-1.252 6.436-1.887 13.219-1.887 20.16 0 26.916 10.047 45 25 45s25-18.084 25-45c0-6.94-.635-13.724-1.887-20.161-1.054-5.422 2.486-10.671 7.908-11.726 5.412-1.053 10.671 2.487 11.725 7.907 1.495 7.693 2.254 15.761 2.254 23.979 0 44.902-22.602 65.001-45 65.001z" fill="#000000" opacity="1" data-original="#000000" class=""></path></g></svg>