<svg xmlns="http://www.w3.org/2000/svg" version="1.1" xmlns:xlink="http://www.w3.org/1999/xlink" width="512" height="512" x="0" y="0" viewBox="0 0 32 32" style="enable-background:new 0 0 512 512" xml:space="preserve" class=""><g><path d="M28.942 10.795 21.696 9.74a.404.404 0 0 1-.303-.219l-3.24-6.567C17.744 2.13 16.92 1.617 16 1.617s-1.745.513-2.152 1.338l-3.241 6.566a.403.403 0 0 1-.302.22l-7.247 1.054a2.383 2.383 0 0 0-1.938 1.633 2.382 2.382 0 0 0 .607 2.46l5.245 5.113c.094.091.137.224.114.354L5.85 27.573c-.156.908.21 1.807.955 2.348a2.381 2.381 0 0 0 2.528.183l6.483-3.409a.4.4 0 0 1 .37 0l6.484 3.409a2.393 2.393 0 0 0 2.527-.183 2.383 2.383 0 0 0 .955-2.348l-1.237-7.22a.398.398 0 0 1 .115-.353l5.244-5.112c.66-.641.893-1.585.607-2.46a2.383 2.383 0 0 0-1.938-1.633zm-.065 2.662-5.243 5.11a2.396 2.396 0 0 0-.69 2.126l1.236 7.218a.384.384 0 0 1-.16.392.385.385 0 0 1-.42.031l-6.482-3.408a2.397 2.397 0 0 0-2.235 0l-6.481 3.408a.386.386 0 0 1-.422-.031.384.384 0 0 1-.16-.392l1.237-7.217a2.396 2.396 0 0 0-.69-2.125l-5.244-5.112a.386.386 0 0 1-.102-.41.386.386 0 0 1 .324-.274l7.248-1.054a2.4 2.4 0 0 0 1.807-1.312l3.24-6.567c.096-.195.267-.223.36-.223s.264.028.36.223l3.24 6.568a2.4 2.4 0 0 0 1.808 1.311l7.247 1.054a.386.386 0 0 1 .324.273.386.386 0 0 1-.102.41z" fill="#000000" opacity="1" data-original="#000000" class=""></path></g></svg>